<?xml version="1.0" encoding="UTF-8" standalone="no"?>
<svg
  xmlns:mapsvg="http://mapsvg.com"
  xmlns:dc="http://purl.org/dc/elements/1.1/"
  xmlns:rdf="http://www.w3.org/1999/02/22-rdf-syntax-ns#"
  xmlns:svg="http://www.w3.org/2000/svg"
  xmlns="http://www.w3.org/2000/svg"
  width="1128"
  height="1778"
  mapsvg:geoViewBox="0 0 1128.000000 1778.000000"
  >

<g transform="translate(0.000000,1778.000000) scale(0.100000,-0.100000)"
fill="#000000" stroke="none">
<path id="su-co" title="Colombia" d="M2480 17690 c-11 -11 -20 -24 -20 -30 0 -5 -9 -10 -21 -10 -11 0 -17 5 -14 10 3 6 1 10 -4 10 -6 0 -11 -13 -11 -28 0 -35 -30 -64 -95 -93 -28 -12 -73 -38 -100 -59 -90 -67 -110 -73 -196 -66 -88 7 -96 3 -127 -67 -26 -57 -56 -84 -77 -67 -20 17 -19 36 3 45 15 6 14 8 -8 20 -42 24 -67 18 -110 -25 -22 -22 -40 -44 -40 -50 0 -5 -13 -16 -29 -24 -20 -11 -30 -25 -34 -48 -7 -42 -9 -52 -30 -114 -10 -28 -16 -71 -15 -94 3 -38 0 -45 -22 -56 -14 -7 -37 -16 -53 -19 -19 -4 -36 -20 -57 -54 -20 -33 -52 -63 -100 -94 l-70 -47 6 -47 c3 -27 7 -54 10 -61 8 -26 -8 -72 -26 -72 -24 0 -31 10 -19 32 8 15 4 25 -19 53 -17 18 -38 47 -48 64 -35 60 -47 27 -14 -39 37 -72 18 -142 -52 -194 -28 -20 -28 -20 -43 0 -14 18 -14 18 -15 -4 0 -13 -8 -37 -17 -53 -15 -25 -15 -30 -2 -46 33 -38 99 -174 99 -202 0 -18 -7 -34 -17 -40 -17 -9 -17 -13 5 -50 28 -51 28 -75 -2 -103 -24 -23 -24 -23 -9 -93 10 -49 13 -98 9 -162 -3 -55 -2 -95 4 -98 16 -10 11 -23 -10 -30 -31 -10 -26 -37 5 -29 27 7 35 -12 13 -34 -9 -9 -6 -12 15 -12 27 0 36 -13 16 -25 -6 -4 -8 -13 -5 -20 2 -7 -7 -23 -21 -36 -14 -13 -35 -44 -46 -69 -10 -25 -27 -54 -37 -65 -10 -11 -27 -45 -38 -75 -16 -43 -25 -55 -41 -54 -12 0 -21 -3 -21 -7 0 -5 -17 -11 -37 -14 -114 -19 -132 -39 -113 -122 7 -29 10 -56 6 -60 -4 -4 -24 -6 -45 -4 -24 1 -42 -3 -50 -12 -10 -13 0 -27 61 -87 80 -79 159 -130 199 -130 32 0 109 -71 109 -100 0 -12 8 -21 23 -24 185 -38 201 -40 194 -21 -5 10 1 19 17 26 29 13 78 -9 102 -46 20 -31 143 -90 157 -76 13 13 63 -8 114 -46 48 -37 93 -100 93 -130 0 -14 12 -36 29 -51 51 -48 113 -92 127 -92 14 0 47 -57 58 -102 4 -19 16 -30 41 -38 44 -14 57 -38 49 -88 -9 -59 15 -72 137 -72 95 0 96 0 142 36 l45 35 41 -23 c36 -21 43 -22 73 -9 65 27 81 25 127 -13 24 -20 53 -36 66 -36 27 0 65 -47 65 -80 0 -12 -20 -54 -44 -94 -48 -76 -76 -136 -76 -161 0 -11 11 -15 44 -15 38 0 48 -5 79 -40 20 -21 38 -36 41 -32 12 19 36 184 51 342 9 96 25 217 36 269 25 121 24 146 -6 206 -13 28 -25 62 -25 77 0 19 -12 36 -41 59 -53 42 -69 81 -69 169 0 63 3 74 26 95 14 13 48 29 76 35 43 9 55 8 76 -6 20 -13 26 -14 33 -3 35 56 -74 125 -140 89 -16 -8 -19 -2 -24 65 -7 77 1 119 25 127 7 3 83 2 169 -1 86 -3 163 -5 171 -3 9 2 18 16 22 33 7 36 30 38 52 4 9 -14 22 -25 28 -25 7 0 31 20 55 45 24 25 48 45 55 45 46 0 86 -85 86 -182 0 -51 2 -58 20 -58 26 0 26 -1 -10 116 -17 55 -34 119 -37 144 -5 36 -16 54 -55 93 -39 38 -54 48 -74 44 -46 -8 -29 34 41 99 74 69 74 69 15 149 -50 67 -73 172 -69 311 4 91 7 105 32 140 15 22 27 50 27 63 0 13 11 37 26 53 30 37 28 69 -7 85 -22 11 -33 10 -63 -2 -52 -22 -341 -35 -373 -16 -8 4 -42 50 -76 102 -57 86 -65 94 -95 95 -18 1 -48 9 -67 20 -29 16 -40 17 -82 7 -50 -12 -251 -12 -270 0 -6 4 -17 23 -23 41 -6 19 -22 42 -36 51 -41 26 -46 55 -24 139 21 80 19 102 -19 155 -19 27 -22 34 -41 109 -8 31 -16 42 -30 42 -13 0 -20 7 -20 20 0 20 -1 20 -31 5 -17 -9 -39 -15 -49 -13 -16 3 -12 13 30 75 38 56 52 89 65 150 9 43 23 99 32 126 19 62 88 164 116 173 32 9 56 34 78 77 17 32 35 45 111 83 138 67 150 83 97 128 -38 32 -90 35 -119 6z"/>
<path id="su-ve" title="Venezuela" d="M2860 17641 c-5 -11 -10 -42 -10 -70 l0 -50 31 9 c16 5 36 7 44 4 10 -4 12 4 8 38 -9 76 -49 113 -73 69z M2397 17450 c-19 -34 -39 -55 -61 -64 -64 -27 -105 -101 -146 -263 -27 -105 -38 -132 -89 -213 l-16 -25 38 22 c26 16 37 18 37 9 0 -7 13 -27 29 -43 18 -19 31 -45 35 -74 4 -25 20 -65 36 -89 34 -51 37 -90 15 -164 -21 -69 -19 -83 15 -115 17 -15 39 -43 48 -62 17 -33 18 -34 71 -31 30 2 76 -2 103 -8 39 -8 56 -7 85 5 47 20 65 19 113 -6 22 -12 47 -18 56 -15 27 11 51 -12 104 -99 29 -46 59 -90 68 -97 24 -20 205 -12 395 18 31 5 43 2 63 -17 31 -29 30 -44 -6 -98 -17 -24 -30 -55 -30 -69 0 -14 -10 -36 -22 -50 -20 -21 -23 -36 -26 -132 -5 -147 15 -237 69 -306 58 -76 54 -97 -33 -167 -27 -21 -48 -42 -48 -46 0 -5 13 -14 30 -21 39 -16 123 -107 116 -126 -3 -8 -2 -24 3 -37 5 -12 24 -74 41 -137 30 -106 36 -119 81 -162 57 -57 93 -62 167 -23 26 14 52 25 59 25 19 0 32 -32 26 -65 l-4 -30 21 25 c12 14 37 45 57 69 20 24 51 50 71 58 19 8 51 26 73 40 21 13 43 22 49 18 13 -8 51 37 66 79 8 23 27 40 74 66 36 19 70 46 77 60 l12 25 -58 5 c-72 6 -91 21 -91 70 0 21 -9 57 -20 81 -11 24 -20 61 -20 81 0 54 -14 84 -69 145 -51 57 -70 98 -52 116 8 8 18 4 35 -12 17 -16 32 -22 46 -18 30 8 78 -11 85 -33 7 -22 32 -27 120 -25 l67 1 35 -43 c50 -60 71 -58 75 9 3 52 4 53 48 74 30 14 57 20 81 17 41 -6 158 32 166 53 7 19 61 44 92 44 19 0 42 15 75 49 42 42 48 53 42 76 -4 15 -25 43 -47 63 -42 38 -119 152 -119 175 0 8 10 27 22 42 14 18 23 47 26 82 4 47 9 57 42 83 22 17 44 27 56 24 23 -5 117 52 109 67 -4 5 -16 9 -27 7 -23 -3 -30 7 -49 69 -11 40 -10 44 15 78 15 19 39 43 54 52 15 9 46 34 69 55 24 21 47 38 53 38 19 0 10 25 -20 59 -27 29 -35 32 -63 26 -18 -3 -55 -7 -84 -8 -39 -2 -58 -8 -78 -27 -21 -20 -28 -22 -35 -10 -7 11 -11 11 -23 1 -11 -8 -17 -9 -22 -1 -4 6 -24 18 -46 27 -21 8 -39 19 -39 24 0 5 24 9 54 9 l54 0 18 48 c10 26 17 54 16 63 -1 8 14 30 34 49 l37 33 -27 24 c-15 13 -35 23 -45 23 -10 0 -35 11 -55 25 -41 28 -81 33 -90 10 -9 -23 -26 -18 -26 8 0 13 -9 32 -20 42 -18 17 -20 17 -14 2 3 -10 1 -17 -5 -17 -6 0 -11 -6 -11 -13 0 -7 -7 -22 -16 -33 -15 -18 -15 -18 -9 11 l6 30 -21 -25 c-18 -23 -20 -23 -20 -5 0 16 -27 101 -36 113 -1 2 -12 -6 -24 -18 -26 -26 -83 -25 -88 2 -3 14 3 15 37 11 36 -5 41 -3 41 14 0 28 -24 46 -49 38 -18 -5 -21 -2 -19 22 3 37 13 43 78 43 30 0 75 7 100 15 43 15 36 15 -110 9 -142 -6 -220 -8 -252 -4 -7 0 -29 -3 -48 -8 l-35 -10 41 -1 c22 -1 49 -7 60 -15 18 -14 18 -15 -9 -21 -15 -4 -42 -4 -61 -1 -27 5 -40 2 -62 -17 -45 -36 -152 -87 -182 -87 -15 0 -33 5 -38 10 -6 6 -24 13 -40 16 -66 11 -101 29 -146 72 -59 57 -100 63 -255 33 -139 -27 -234 -28 -255 -3 -10 10 -17 43 -20 84 -5 78 -20 100 -88 131 -47 21 -207 40 -225 27 -5 -4 -28 -8 -50 -8 -24 0 -58 -10 -85 -25 -25 -14 -63 -29 -85 -33 -52 -9 -125 -46 -170 -85 -45 -40 -46 -75 -3 -149 61 -108 68 -125 68 -165 0 -22 -9 -59 -20 -82 -40 -89 -160 -115 -160 -35 0 13 -11 37 -25 54 -30 36 -50 98 -41 132 4 15 29 51 56 81 55 61 66 88 51 129 -6 15 -11 38 -11 52 0 14 -8 37 -17 51 -10 14 -20 46 -23 70 l-5 43 -28 -50z M4272 17360 c-19 -16 -28 -17 -44 -9 -11 6 -22 9 -24 6 -3 -2 9 -10 25 -16 33 -14 71 -1 71 24 0 19 0 19 -28 -5z"/>
<path id="su-gu" title="Guyana" d="M5210 16653 c0 -5 -32 -34 -72 -64 -107 -81 -141 -119 -133 -149 3 -14 9 -37 12 -52 4 -23 9 -27 28 -22 33 8 53 -29 28 -51 -34 -31 -95 -66 -112 -64 -49 5 -73 -20 -82 -85 -4 -31 -17 -69 -28 -85 -12 -16 -21 -34 -21 -41 0 -18 64 -112 101 -148 33 -32 34 -32 105 -26 67 6 72 5 88 -17 20 -29 20 -85 1 -119 -22 -39 -18 -47 28 -62 39 -12 42 -16 48 -56 3 -23 11 -48 17 -54 20 -20 13 -61 -18 -102 -17 -22 -30 -50 -30 -62 0 -12 -9 -42 -19 -67 -33 -77 -32 -169 4 -221 16 -24 25 -51 25 -76 0 -30 4 -40 16 -40 8 0 13 -4 10 -8 -8 -14 99 -120 128 -128 14 -3 26 -10 26 -15 0 -10 50 -12 74 -3 9 3 16 14 16 25 0 25 54 52 180 91 19 5 50 24 69 40 36 32 48 33 174 12 45 -8 50 9 7 31 -33 17 -50 43 -50 76 0 12 -13 43 -29 70 -27 43 -37 70 -55 151 -5 21 -13 27 -38 30 -28 3 -38 12 -80 82 l-48 79 1 124 c2 155 7 163 102 163 53 0 64 3 76 22 12 19 12 24 -1 32 -14 8 -12 15 9 55 20 38 24 57 21 108 -4 68 -28 108 -58 98 -12 -4 -21 3 -30 25 -15 37 -60 76 -115 101 -64 29 -72 26 -91 -37 -14 -48 -36 -76 -49 -63 -5 6 14 84 38 152 26 77 19 108 -46 176 -29 31 -62 67 -73 81 -24 30 -80 80 -70 63 12 -21 -13 -14 -50 13 -19 15 -34 22 -34 17z"/>
<path id="su-su" title="Surinam" d="M6300 16045 c0 -2 12 -11 28 -19 l27 -15 -35 -1 c-20 0 -41 -5 -48 -12 -9 -9 -12 -8 -12 5 0 25 -35 38 -92 35 -49 -3 -52 -5 -60 -35 -10 -38 -14 -40 -36 -14 -23 25 -73 40 -157 48 -83 7 -83 6 -117 -88 -18 -48 -22 -70 -14 -82 8 -12 5 -23 -10 -44 -19 -25 -28 -28 -85 -31 -35 -2 -69 -8 -76 -14 -9 -7 -13 -45 -13 -130 0 -123 8 -156 50 -203 10 -11 21 -30 25 -42 5 -18 14 -23 39 -23 37 0 48 -18 61 -95 4 -22 20 -62 37 -89 16 -27 32 -65 35 -84 5 -26 17 -42 52 -67 59 -43 128 -62 149 -41 13 13 12 19 -7 50 -19 30 -20 39 -10 58 22 44 28 47 63 36 27 -9 47 -6 102 11 l68 21 55 -36 c40 -27 59 -34 70 -27 25 15 71 113 71 152 1 20 11 61 24 91 27 61 25 74 -23 140 -37 51 -54 130 -49 225 3 67 7 78 50 141 54 81 63 104 45 127 -18 25 -207 72 -207 52z"/>
<path id="su-gufr" title="Guyana Francesa" d="M6530 15957 c0 -12 -22 -55 -50 -96 l-50 -74 0 -86 c0 -106 10 -144 55 -207 40 -56 43 -88 15 -144 -11 -22 -20 -56 -20 -77 0 -42 -37 -130 -63 -152 -24 -19 -21 -25 16 -43 33 -16 35 -15 78 14 30 20 50 27 64 22 11 -3 38 -6 61 -5 26 1 46 -4 54 -14 20 -25 62 -18 98 16 19 18 52 72 76 123 24 50 69 131 101 180 70 107 98 176 89 219 -4 25 -20 42 -72 79 -37 26 -123 88 -192 138 -90 65 -143 96 -189 110 -77 24 -71 25 -71 -3z"/>
<path id="su-br" title="Brasil" d="M5055 15855 c-5 -2 -23 -6 -38 -10 -25 -5 -28 -9 -23 -31 8 -30 0 -46 -56 -106 -35 -38 -51 -48 -75 -48 -39 0 -83 -19 -83 -35 0 -7 -12 -17 -27 -23 -98 -37 -125 -44 -150 -39 -16 4 -46 -1 -70 -11 -42 -17 -43 -18 -43 -62 0 -81 -39 -93 -95 -27 -32 37 -42 42 -78 42 -133 2 -141 3 -159 35 -15 27 -22 31 -57 28 -28 -1 -47 4 -61 17 -45 40 -13 -23 42 -83 48 -52 68 -98 68 -152 0 -22 9 -58 20 -80 11 -22 20 -57 20 -79 0 -45 6 -48 90 -53 38 -3 45 -6 48 -26 5 -36 -20 -65 -86 -96 -45 -22 -62 -36 -67 -55 -9 -37 -79 -127 -83 -107 -5 21 -11 20 -53 -8 -19 -13 -51 -31 -71 -39 -22 -9 -51 -36 -75 -69 -22 -29 -47 -59 -56 -66 -26 -22 -39 -5 -32 39 8 47 2 48 -65 14 -27 -14 -64 -25 -81 -25 -38 0 -91 31 -119 70 -15 21 -30 30 -58 32 l-37 3 -1 72 c-2 76 -24 137 -56 157 -14 9 -26 2 -66 -37 -54 -53 -77 -58 -94 -22 -13 30 -28 33 -28 6 0 -40 -21 -44 -200 -39 -133 3 -173 1 -181 -9 -7 -8 -9 -36 -5 -76 7 -61 8 -64 32 -59 32 6 112 -25 124 -48 15 -29 12 -80 -5 -86 -9 -4 -28 -1 -44 5 -21 9 -39 9 -74 1 -70 -18 -80 -34 -76 -128 l4 -80 53 -55 c34 -37 52 -64 52 -81 0 -14 11 -46 25 -72 30 -57 31 -83 5 -201 -11 -51 -27 -165 -35 -255 -17 -179 -38 -314 -57 -373 -17 -50 -60 -66 -94 -34 -11 11 -37 22 -56 25 -29 5 -41 1 -69 -23 -43 -37 -49 -39 -150 -53 -73 -10 -90 -17 -146 -57 -35 -24 -66 -51 -70 -58 -5 -7 -27 -22 -51 -34 -49 -25 -62 -50 -62 -124 0 -34 -6 -61 -17 -77 -14 -19 -18 -45 -18 -104 l0 -79 -50 -30 c-69 -40 -87 -74 -74 -135 6 -28 3 -35 -16 -48 -37 -24 -39 -44 -5 -79 16 -17 30 -37 30 -45 0 -21 50 -122 77 -155 119 -148 123 -156 99 -203 -9 -17 -16 -33 -16 -36 0 -2 30 -8 68 -11 37 -4 80 -14 95 -22 32 -16 67 -68 67 -99 0 -28 17 -34 101 -34 85 0 106 10 184 89 57 59 106 82 90 44 -4 -10 -7 -24 -6 -30 1 -7 1 -23 0 -35 -3 -56 0 -264 5 -283 3 -12 21 -29 41 -38 33 -16 38 -16 68 -1 27 14 52 16 171 10 102 -5 144 -10 156 -21 9 -8 23 -15 31 -15 27 0 76 38 88 68 14 35 47 52 84 45 21 -4 29 0 39 22 12 27 54 55 84 55 9 0 43 27 76 59 53 54 65 61 128 75 38 9 95 16 126 16 37 0 63 5 74 15 15 14 19 13 36 -6 21 -23 23 -70 9 -192 -7 -61 -6 -70 13 -90 18 -20 19 -26 9 -64 -10 -37 -8 -47 19 -107 16 -36 36 -68 46 -71 9 -3 19 -16 22 -29 4 -16 22 -32 51 -46 24 -12 58 -37 75 -56 42 -49 87 -66 153 -58 47 6 56 4 84 -20 22 -19 41 -26 64 -24 27 3 36 -2 53 -29 12 -17 35 -37 51 -43 17 -7 46 -21 66 -31 20 -10 48 -19 61 -19 18 0 34 -13 57 -45 37 -51 60 -60 139 -52 66 7 108 -6 181 -52 48 -31 82 -86 67 -109 -3 -5 8 -49 24 -98 15 -49 31 -106 35 -126 7 -36 6 -38 -19 -38 -33 0 -33 -10 -1 -48 33 -40 55 -93 55 -135 0 -59 18 -95 54 -107 17 -5 112 -11 210 -13 l178 -2 -7 -35 c-4 -19 -9 -47 -12 -62 -3 -14 3 -52 12 -84 22 -75 68 -124 118 -124 32 0 37 -4 48 -37 6 -21 25 -64 40 -95 34 -66 35 -80 13 -155 -9 -30 -13 -68 -10 -84 4 -20 -4 -47 -24 -91 -37 -78 -38 -117 -5 -148 32 -30 31 -44 -1 -68 l-27 -19 17 -48 c9 -27 26 -59 38 -72 12 -13 19 -26 15 -29 -3 -3 3 -23 14 -43 14 -27 18 -47 13 -77 -3 -23 -7 -72 -9 -110 -2 -38 -5 -78 -7 -89 -2 -16 9 -24 62 -43 36 -13 100 -28 144 -34 l79 -11 19 26 c21 28 46 35 65 16 6 -6 39 -21 74 -34 l63 -22 32 -89 c17 -49 40 -107 52 -129 11 -22 23 -60 26 -85 4 -25 15 -60 26 -78 24 -39 60 -42 120 -12 22 11 49 20 61 20 28 0 101 -58 92 -73 -4 -7 -8 -50 -9 -97 -2 -47 -7 -105 -13 -130 -15 -63 -14 -157 1 -162 7 -3 24 2 39 11 22 13 33 13 69 2 36 -11 45 -19 65 -64 38 -82 55 -164 55 -258 0 -92 -6 -123 -21 -113 -6 3 -31 -8 -57 -24 -26 -17 -67 -40 -92 -52 -25 -12 -53 -35 -63 -51 -9 -16 -24 -32 -34 -36 -10 -3 -41 -29 -70 -57 -38 -38 -49 -55 -43 -67 11 -20 0 -34 -25 -34 -26 0 -119 -139 -158 -235 -22 -53 -39 -79 -72 -106 -27 -22 -46 -47 -50 -65 -4 -17 -14 -33 -22 -36 -12 -5 -12 -7 -1 -14 24 -16 54 -9 78 16 30 32 58 32 103 -2 19 -16 66 -51 104 -80 68 -51 93 -84 93 -124 0 -28 42 -22 55 9 5 12 14 22 18 22 5 0 37 -27 70 -60 42 -41 67 -58 78 -55 10 3 20 1 24 -5 4 -6 32 -23 63 -39 31 -16 71 -43 87 -61 17 -18 53 -42 81 -55 34 -15 68 -42 103 -83 30 -34 73 -73 97 -87 52 -31 56 -53 19 -107 -28 -42 -32 -91 -11 -142 22 -52 35 -54 72 -11 63 75 93 137 105 215 6 41 20 92 30 112 23 44 23 48 5 48 -21 0 -30 78 -11 106 8 13 15 32 15 43 0 33 11 50 46 72 20 12 36 32 40 47 3 15 9 36 14 47 5 11 11 41 15 67 3 26 10 50 16 53 5 4 1 18 -11 32 -21 27 -27 73 -9 73 6 0 13 -8 16 -19 2 -10 18 -29 35 -41 l30 -22 29 21 c36 27 43 26 57 -4 15 -32 15 -55 2 -55 -5 0 -10 -18 -10 -41 0 -26 -7 -50 -20 -66 -11 -14 -20 -34 -20 -44 0 -11 -6 -19 -14 -19 -8 0 -16 -15 -19 -36 -8 -45 -109 -154 -144 -154 -16 0 -23 -6 -23 -20 0 -11 4 -20 9 -20 4 0 48 42 97 93 116 119 171 221 219 409 47 180 88 261 171 336 58 53 65 62 55 80 -15 28 -14 35 4 28 28 -10 39 66 24 174 -7 52 -16 99 -20 104 -5 5 -1 15 9 22 16 12 16 13 0 14 -11 0 -15 6 -11 19 3 10 -5 40 -16 66 -12 26 -21 61 -21 78 0 17 -6 38 -14 46 -7 9 -17 27 -21 39 -6 21 -4 23 14 17 18 -5 21 -2 21 24 0 25 -4 30 -27 34 l-28 3 33 13 c17 7 32 17 32 21 0 5 3 15 6 24 4 10 -1 18 -12 22 -29 10 -54 35 -54 53 0 12 3 12 12 3 21 -21 48 -14 48 12 0 22 3 24 40 19 32 -5 44 -2 55 13 7 10 11 22 8 27 -9 15 80 108 126 132 25 13 63 44 84 69 21 25 56 55 78 66 21 11 39 27 39 35 0 18 26 20 34 3 3 -9 13 -4 29 15 26 31 39 34 110 22 46 -7 47 -7 47 19 0 19 8 30 33 42 17 9 45 27 60 40 17 14 42 24 60 24 31 0 31 0 9 16 -12 8 -22 21 -22 29 0 24 42 45 89 45 25 0 60 5 78 12 30 11 39 10 76 -9 27 -15 52 -20 70 -16 34 7 41 17 27 43 -13 25 2 50 30 50 14 0 17 -8 16 -37 l-1 -38 40 2 c22 1 74 4 115 7 l75 4 -2 38 c-5 66 41 119 130 150 70 25 79 39 72 109 -5 45 -2 80 14 138 24 91 23 90 72 134 42 38 57 69 40 86 -7 7 -3 17 14 33 14 13 25 34 25 47 0 42 20 83 52 107 l31 23 -9 86 c-18 188 -7 258 56 342 l40 53 -6 96 c-5 81 -2 111 20 207 32 139 32 172 0 303 -22 91 -25 119 -21 214 5 91 3 117 -13 158 -10 26 -14 48 -9 48 5 0 9 7 9 15 0 8 -4 15 -10 15 -14 0 -12 56 3 72 6 7 22 34 34 60 22 45 22 46 2 64 -23 21 -25 39 -4 30 11 -4 19 3 26 21 l10 26 29 -28 c17 -16 30 -39 30 -52 0 -13 4 -23 9 -23 17 0 63 43 87 81 30 48 125 278 119 289 -7 12 18 70 31 70 6 0 17 6 23 14 9 10 8 16 -4 26 -17 14 -11 32 9 24 19 -7 28 23 15 48 -14 25 -4 36 21 21 15 -10 21 -9 32 4 7 9 36 31 63 49 60 38 81 61 130 138 33 51 36 62 25 79 -10 17 -10 19 4 14 10 -4 16 -1 16 9 0 9 5 14 12 12 7 -3 32 19 56 49 47 58 112 214 112 270 0 18 7 50 15 70 18 48 16 123 -4 123 -11 0 -11 4 2 18 18 19 24 102 8 102 -4 0 -9 24 -9 53 0 54 -25 141 -47 167 -7 8 -13 33 -13 56 1 64 -38 166 -76 203 -43 41 -86 51 -198 44 -79 -5 -92 -4 -116 14 -15 11 -43 25 -63 32 -20 6 -45 21 -55 32 -11 12 -32 28 -49 36 -39 21 -115 94 -175 170 -28 34 -65 70 -82 79 -18 9 -78 51 -133 92 -136 102 -201 132 -285 131 -36 -1 -92 -4 -125 -8 -52 -5 -60 -9 -63 -29 -3 -21 -5 -21 -25 -7 -12 8 -29 15 -38 15 -9 0 -37 11 -63 25 -25 13 -46 20 -46 15 0 -24 -70 -7 -159 39 -131 66 -171 79 -186 57 -7 -9 -24 -16 -38 -16 -39 0 -92 -31 -116 -67 -21 -32 -41 -43 -41 -22 0 5 -4 7 -10 4 -23 -14 -8 23 20 50 35 33 38 45 11 45 -28 0 -43 -25 -52 -83 -7 -41 -16 -59 -44 -85 -19 -18 -35 -41 -35 -50 0 -12 -3 -13 -12 -4 -9 9 -9 19 0 45 7 18 12 47 12 64 0 43 19 94 47 124 15 16 21 32 17 42 -8 22 -20 21 -37 -3 -9 -13 -20 -17 -35 -13 -25 6 -29 18 -7 26 18 7 48 76 40 95 -3 8 -12 11 -25 7 -15 -5 -23 0 -31 19 -7 14 -20 28 -30 31 -9 3 -20 12 -23 20 -9 23 -33 7 -40 -27 -5 -26 -8 -29 -21 -18 -8 7 -15 19 -15 26 0 8 -4 14 -9 14 -5 0 -13 9 -16 21 -4 11 -18 24 -31 29 -13 5 -24 14 -24 20 0 6 -4 8 -10 5 -5 -3 -19 1 -31 9 -12 8 -28 12 -36 9 -8 -3 -21 4 -29 16 -9 12 -20 19 -25 15 -5 -3 -15 -1 -22 4 -7 5 -29 12 -49 16 -25 5 -39 13 -43 27 -5 16 -13 19 -30 15 -15 -4 -29 0 -39 10 -9 8 -20 12 -26 9 -5 -3 -10 1 -10 9 0 16 -38 42 -47 32 -3 -3 -1 -12 6 -20 15 -18 -6 -28 -32 -14 -12 6 -23 6 -31 -2 -10 -8 -15 -7 -20 5 -5 15 -8 15 -28 1 -12 -9 -33 -16 -45 -16 -27 0 -43 -27 -43 -74 0 -26 -8 -42 -27 -61 l-28 -25 37 0 c20 0 40 -4 43 -10 3 -6 -4 -10 -17 -10 -33 0 -50 -14 -42 -33 9 -23 -9 -21 -31 3 -25 28 -40 25 -65 -11 -12 -16 -40 -41 -61 -54 -32 -21 -41 -34 -54 -82 -9 -32 -22 -71 -30 -88 -14 -30 -14 -30 -14 26 -1 31 8 81 18 112 16 44 17 57 7 57 -8 0 -19 -6 -25 -14 -7 -8 -24 -17 -39 -21 -15 -4 -30 -12 -34 -18 -4 -7 -13 -4 -25 11 -17 20 -20 20 -58 7 -51 -19 -71 -19 -78 -1 -3 8 -16 16 -28 18 -17 2 -25 16 -40 63 -10 33 -18 82 -17 108 0 26 -2 51 -6 54 -3 4 -25 -12 -49 -34 -43 -42 -153 -109 -228 -139 -39 -16 -42 -16 -51 0 -8 14 -18 15 -60 10 -41 -6 -50 -4 -46 7 9 26 81 59 131 59 39 0 47 3 47 18 0 10 11 29 25 42 17 16 25 34 25 56 0 45 107 201 179 260 31 26 73 72 93 103 78 117 89 131 113 147 28 18 33 34 10 34 -21 0 -19 5 10 34 51 51 21 109 -60 122 -40 5 -50 12 -67 40 -11 19 -24 34 -28 34 -5 0 -9 17 -8 38 0 20 -16 84 -35 142 -20 58 -39 135 -42 172 -4 37 -11 65 -16 62 -5 -3 -9 11 -9 31 0 43 -20 94 -45 115 -17 14 -18 13 -11 -29 6 -38 5 -42 -8 -32 -8 7 -18 22 -22 34 -5 17 -9 14 -24 -24 -9 -25 -44 -88 -78 -140 -33 -52 -81 -138 -106 -191 -56 -118 -97 -156 -164 -154 -30 0 -41 4 -37 13 3 9 -8 13 -38 13 -23 0 -51 3 -62 6 -13 3 -35 -5 -58 -20 -21 -14 -45 -26 -54 -26 -21 0 -141 65 -171 93 l-22 21 -75 -24 c-63 -20 -79 -21 -101 -11 -22 10 -28 9 -40 -6 -17 -23 -17 -29 2 -58 8 -13 14 -36 12 -52 -3 -27 -5 -28 -58 -26 -70 2 -94 2 -122 1 -13 0 -51 3 -86 7 -60 8 -64 7 -93 -21 -16 -15 -48 -33 -72 -40 -110 -31 -157 -53 -168 -81 -14 -38 -94 -58 -118 -29 -6 7 -24 16 -40 19 -18 4 -37 20 -55 47 -15 23 -40 46 -56 52 -17 6 -27 15 -24 23 3 7 1 16 -5 20 -6 3 -11 24 -11 46 0 25 -8 51 -22 70 -33 44 -37 146 -9 217 12 29 21 63 21 75 0 12 16 45 36 74 36 53 36 53 18 80 -10 16 -20 43 -23 62 -5 30 -11 36 -46 45 -46 13 -53 31 -31 75 24 45 21 97 -6 115 -23 16 -25 17 -43 11z M7340 15026 c0 -8 5 -18 10 -21 6 -3 10 1 10 9 0 8 -4 18 -10 21 -5 3 -10 -1 -10 -9z M7390 14710 c0 -5 7 -7 15 -4 8 4 15 8 15 10 0 2 -7 4 -15 4 -8 0 -15 -4 -15 -10z M7392 14648 c-7 -7 -12 -18 -12 -25 0 -11 5 -11 20 -3 11 6 20 17 20 25 0 18 -12 19 -28 3z M7336 14602 c-5 -18 -5 -36 -2 -39 7 -7 19 43 13 59 -2 7 -7 -2 -11 -20z M7401 14557 c-49 -17 -48 -33 1 -45 42 -11 44 -10 78 23 l35 35 -40 -1 c-22 0 -55 -5 -74 -12z M7305 14520 c3 -5 8 -10 11 -10 2 0 4 5 4 10 0 6 -5 10 -11 10 -5 0 -7 -4 -4 -10z M7510 14500 c-21 -14 3 -29 37 -22 25 5 25 6 8 18 -22 16 -25 17 -45 4z M7242 14474 c-12 -8 -22 -19 -22 -25 0 -17 26 -9 50 16 27 29 9 35 -28 9z M7322 14453 c-15 -6 -42 -56 -42 -77 0 -8 10 -24 22 -36 l22 -20 -25 0 c-22 0 -25 -4 -27 -45 l-2 -46 35 7 c19 3 35 2 35 -3 0 -16 -24 -33 -47 -33 -20 0 -23 -5 -23 -44 0 -61 35 -112 76 -109 16 1 55 4 86 6 31 1 60 6 64 9 3 4 12 4 19 1 8 -2 19 4 26 15 10 15 20 18 53 15 60 -6 95 20 135 101 30 62 71 188 71 220 0 10 -26 19 -86 30 -80 15 -89 15 -122 -1 -33 -16 -40 -16 -117 0 -82 17 -129 20 -153 10z M7150 14428 c-12 -22 -12 -22 6 -6 10 10 15 20 12 24 -4 3 -12 -5 -18 -18z M7103 14338 c-28 -31 -43 -62 -43 -89 0 -12 -13 -37 -30 -56 -16 -18 -30 -40 -30 -49 0 -37 111 57 144 123 20 41 21 79 0 87 -21 8 -18 9 -41 -16z M7209 14323 c-13 -16 -12 -17 4 -4 9 7 17 15 17 17 0 8 -8 3 -21 -13z"/>
<path id="su-ec" title="Ecuador" d="M698 14813 c-15 -34 -22 -43 -25 -30 -5 20 -16 18 -90 -14 -24 -10 -43 -25 -43 -34 0 -18 -17 -20 -22 -3 -3 8 -16 6 -44 -9 l-39 -20 3 -81 c4 -87 -1 -103 -52 -160 -46 -51 -52 -76 -27 -101 26 -26 26 -31 1 -31 -13 0 -25 -11 -34 -34 -10 -24 -22 -35 -45 -39 -34 -7 -38 -19 -17 -67 10 -25 11 -41 3 -67 -8 -25 -7 -43 1 -67 18 -48 15 -90 -8 -119 l-21 -26 38 -20 c21 -10 49 -31 62 -45 14 -14 29 -26 35 -26 6 0 22 18 36 40 13 22 30 40 38 40 7 0 11 -4 7 -9 -3 -5 -1 -12 5 -16 6 -4 10 12 10 43 0 29 6 54 13 61 20 16 27 3 15 -25 -8 -18 -8 -38 2 -78 10 -43 10 -64 0 -107 -18 -78 -46 -128 -75 -135 -14 -3 -25 -7 -25 -8 0 -1 7 -23 16 -49 23 -68 16 -100 -23 -112 -35 -10 -46 -41 -18 -51 11 -5 12 -10 4 -26 -15 -27 -5 -33 23 -14 30 21 45 20 75 -4 14 -11 41 -20 60 -20 32 0 36 -4 58 -54 39 -87 83 -100 116 -33 12 23 30 53 40 66 11 13 19 39 19 58 0 37 64 209 86 233 8 8 28 33 45 55 40 52 84 78 196 115 112 38 162 70 246 159 58 62 147 209 147 245 0 6 5 28 11 49 8 32 13 36 25 26 12 -10 14 -5 14 30 0 48 -10 72 -51 119 -33 37 -37 62 -11 62 9 1 0 10 -23 22 -22 11 -59 38 -82 59 -49 45 -64 48 -78 17 -12 -28 -40 -26 -213 8 -15 3 -29 17 -38 40 -18 42 -61 83 -89 84 -37 1 -101 37 -169 94 l-66 57 -22 -48z M416 13784 c-17 -17 -22 -59 -6 -49 6 3 10 12 10 20 0 8 10 21 22 29 18 13 19 16 6 16 -9 0 -24 -7 -32 -16z"/>
<path id="su-pe" title="Peru" d="M1560 14469 c0 -5 -18 -9 -41 -9 l-40 0 36 -44 c22 -28 38 -59 41 -83 3 -21 7 -50 9 -65 4 -24 1 -28 -20 -28 -20 0 -26 -7 -36 -42 -19 -72 -87 -192 -145 -256 -72 -80 -155 -134 -256 -167 -46 -15 -96 -34 -113 -42 -49 -24 -95 -75 -106 -116 -7 -25 -15 -37 -23 -34 -15 6 -56 -103 -77 -201 -6 -29 -21 -65 -34 -80 -13 -16 -27 -41 -31 -55 -18 -75 -106 -51 -145 41 -15 35 -23 42 -47 42 -15 0 -43 11 -61 24 l-33 25 -28 -21 c-36 -26 -65 -18 -56 16 3 14 2 28 -4 31 -14 9 -12 51 3 63 6 5 21 12 32 14 12 2 21 13 23 26 4 28 -16 92 -29 92 -22 0 -155 -149 -181 -202 -35 -68 -36 -113 -4 -153 18 -22 23 -38 19 -62 -4 -26 2 -42 32 -83 22 -31 38 -63 39 -82 1 -28 -3 -33 -29 -38 -23 -4 -31 -11 -33 -31 -3 -24 5 -30 95 -74 134 -66 221 -151 288 -285 26 -52 70 -126 99 -165 70 -95 91 -130 117 -200 12 -33 46 -105 75 -160 29 -55 63 -127 75 -160 12 -33 42 -91 67 -130 55 -85 81 -142 82 -175 0 -17 11 -32 36 -48 44 -29 94 -106 94 -147 0 -23 10 -41 36 -66 38 -37 184 -272 203 -328 7 -22 9 -59 5 -98 -7 -62 -6 -65 23 -96 17 -18 42 -51 57 -74 14 -23 50 -60 79 -81 29 -22 77 -67 106 -100 39 -45 74 -73 139 -108 48 -26 119 -69 158 -96 39 -26 75 -48 80 -48 5 0 63 -26 129 -59 66 -32 141 -68 166 -79 26 -11 78 -43 116 -71 38 -28 75 -51 81 -51 19 0 72 -52 92 -90 20 -39 41 -59 160 -146 67 -49 79 -55 110 -49 54 9 86 37 81 71 -8 69 -6 78 18 90 13 7 28 18 32 26 8 16 -6 58 -21 58 -18 0 -10 22 18 48 15 15 44 50 62 77 29 41 35 59 35 102 l0 53 -38 0 c-49 0 -77 15 -71 37 4 13 -5 22 -28 33 -18 8 -39 13 -46 12 -8 -2 -25 4 -39 13 -21 14 -24 22 -18 48 3 18 9 49 12 69 7 53 34 58 89 19 l44 -30 16 30 c15 30 14 32 -10 68 -14 20 -26 44 -26 53 0 9 18 54 40 99 44 92 46 102 26 150 -7 19 -16 85 -19 148 -6 118 1 150 37 180 9 8 16 20 16 28 0 13 -208 374 -231 401 -14 16 -65 12 -124 -11 -35 -13 -43 -13 -68 0 -16 8 -35 12 -42 9 -10 -3 -15 11 -20 57 -6 64 -9 212 -5 280 1 21 -1 41 -5 45 -4 4 -30 -19 -59 -50 -28 -31 -68 -64 -88 -73 -38 -15 -131 -20 -187 -9 -27 6 -31 10 -31 40 0 23 -9 44 -28 65 -25 28 -38 33 -116 45 -48 7 -90 15 -93 17 -2 3 5 20 16 38 29 47 27 61 -19 114 -22 25 -40 50 -40 55 0 4 -16 27 -35 50 -19 23 -35 48 -35 55 0 7 -10 25 -22 41 -13 15 -21 37 -20 47 2 11 -10 33 -28 52 -27 28 -30 35 -20 59 6 16 18 30 28 33 16 4 18 12 14 56 -5 63 14 91 82 128 25 13 47 28 50 34 2 6 -1 34 -7 63 -10 49 -9 57 13 99 16 30 26 68 28 109 4 56 8 67 34 89 16 14 36 25 43 25 8 0 26 16 41 35 14 19 31 35 36 35 6 0 28 14 49 31 29 23 56 34 107 41 110 17 137 26 178 59 32 25 45 30 73 25 18 -3 41 -12 50 -20 9 -7 28 -14 43 -14 32 1 28 15 -20 66 -24 26 -35 31 -58 26 -18 -3 -37 0 -48 9 -18 13 -19 19 -8 53 6 22 28 66 48 99 74 120 76 124 57 156 -10 16 -26 29 -36 29 -24 0 -56 17 -89 48 -28 26 -43 26 -106 1 -30 -13 -37 -12 -72 9 l-39 22 -46 -35 -46 -35 -105 3 c-92 3 -107 6 -127 25 -16 17 -22 34 -22 69 0 44 -2 48 -38 67 -31 17 -44 33 -60 75 -12 30 -31 59 -42 65 -11 6 -34 22 -51 36 -17 14 -45 33 -62 42 -24 13 -34 28 -47 72 -13 44 -27 65 -70 104 -52 48 -115 81 -115 61z"/>
<path id="su-bo" title="Bolivia" d="M3901 11966 c-10 -12 -31 -16 -80 -16 -37 0 -94 -7 -126 -15 -51 -13 -68 -24 -110 -69 -36 -39 -62 -57 -93 -65 -27 -8 -48 -21 -59 -39 -24 -36 -34 -43 -60 -37 -33 8 -52 -4 -73 -45 -14 -27 -31 -42 -60 -54 -49 -20 -80 -21 -80 -2 0 12 -76 26 -143 26 -26 0 -24 -3 99 -211 57 -96 104 -180 104 -186 0 -5 -13 -30 -30 -54 l-30 -44 7 -115 c3 -63 12 -130 19 -149 20 -48 18 -58 -26 -150 -45 -94 -47 -106 -20 -141 22 -28 26 -71 8 -99 -11 -17 -6 -26 39 -70 29 -28 57 -51 63 -51 6 0 10 -15 8 -37 -3 -33 0 -38 20 -39 39 -2 46 -19 18 -42 -14 -11 -26 -29 -26 -41 0 -12 -6 -21 -13 -21 -6 0 -32 -29 -56 -64 -24 -36 -54 -75 -67 -87 l-23 -22 19 -27 c11 -16 20 -31 20 -36 0 -18 74 -116 95 -124 18 -7 21 -14 18 -34 -11 -56 65 -222 131 -286 51 -49 53 -57 30 -102 -15 -28 -14 -31 5 -52 26 -28 27 -51 2 -68 -30 -21 -22 -84 15 -113 22 -18 28 -30 26 -53 -3 -23 6 -40 39 -78 42 -49 69 -99 69 -130 0 -9 19 -57 41 -108 23 -50 48 -113 56 -141 21 -73 38 -95 73 -95 50 0 79 18 115 72 49 75 55 82 102 111 33 21 42 33 45 59 4 46 24 45 88 -2 l54 -40 93 0 c128 0 163 -20 215 -124 l25 -49 17 68 c27 109 36 121 98 128 29 4 86 7 126 7 65 0 74 -3 94 -25 12 -14 25 -25 29 -25 13 0 42 227 40 323 -1 88 2 105 28 165 15 37 32 80 35 96 12 50 54 82 121 91 32 4 122 23 199 42 187 46 274 44 386 -9 87 -40 147 -89 166 -135 10 -22 19 -31 29 -27 21 8 19 19 -10 50 -33 35 -32 70 5 150 19 44 28 75 24 90 -4 14 2 56 12 95 14 55 16 75 7 97 -6 15 -24 57 -39 93 -25 63 -29 67 -64 73 -51 8 -104 68 -126 142 -15 53 -15 85 2 143 7 22 5 23 -32 17 -55 -9 -327 9 -353 24 -29 15 -51 68 -51 120 0 46 -10 69 -52 120 -36 44 -38 80 -3 80 22 0 24 3 18 33 -3 17 -16 64 -29 102 -13 39 -24 86 -24 106 0 49 -28 81 -102 118 -58 29 -66 31 -140 25 l-79 -7 -49 52 c-26 28 -55 51 -64 51 -8 0 -39 11 -68 24 -29 14 -61 27 -71 30 -9 3 -27 22 -38 41 -19 32 -25 35 -51 30 -22 -5 -37 -1 -64 20 -30 23 -43 26 -77 22 -68 -9 -124 10 -159 54 -18 22 -55 50 -85 64 -29 14 -53 32 -53 40 0 8 -11 25 -25 37 -14 12 -25 26 -25 32 0 6 -12 34 -27 63 -25 46 -26 56 -17 92 9 34 8 44 -9 71 -16 25 -18 41 -13 83 17 131 18 162 4 180 -13 17 -15 17 -27 3z"/>
<path id="su-ch" title="Chile" d="M3121 9926 c-7 -9 -20 -16 -28 -16 -12 0 -14 -8 -8 -37 16 -77 -3 -109 -67 -120 -31 -4 -38 -9 -32 -22 4 -9 11 -47 15 -86 4 -38 22 -110 39 -160 23 -68 34 -126 45 -235 8 -80 21 -165 30 -190 30 -83 36 -151 29 -334 -6 -171 -8 -181 -30 -203 -34 -34 -34 -98 0 -107 28 -7 38 -35 26 -76 -14 -50 7 -239 35 -313 30 -81 31 -97 5 -130 -25 -32 -25 -62 1 -156 20 -70 21 -83 10 -166 -7 -49 -12 -128 -11 -175 3 -187 -6 -293 -29 -351 -24 -63 -22 -72 25 -141 45 -66 56 -107 50 -180 -4 -49 -9 -66 -25 -77 -31 -20 -27 -73 15 -188 20 -54 51 -143 71 -198 19 -55 43 -114 54 -131 20 -34 29 -155 14 -207 -5 -19 -1 -41 14 -76 27 -63 26 -91 -1 -144 -20 -39 -20 -47 -10 -123 17 -115 15 -176 -8 -234 -11 -28 -20 -72 -20 -98 1 -171 -6 -272 -19 -272 -9 0 -11 -8 -6 -27 3 -16 9 -38 11 -50 8 -31 -29 -65 -61 -57 -29 7 -30 3 -9 -37 8 -17 13 -37 10 -45 -3 -7 13 -37 34 -65 26 -34 42 -68 46 -97 5 -30 27 -75 74 -145 78 -118 90 -149 90 -228 0 -48 -4 -60 -20 -69 -26 -14 -26 -53 1 -195 30 -159 58 -215 116 -230 16 -4 23 -11 19 -20 -7 -19 27 -37 62 -33 21 2 28 9 30 30 5 45 24 52 78 29 64 -29 74 -27 74 10 0 27 2 30 15 19 27 -22 18 -57 -21 -80 -44 -28 -43 -56 4 -54 28 2 36 -4 56 -40 29 -48 43 -96 28 -96 -5 0 -17 11 -26 25 -10 15 -26 25 -39 25 -20 -1 -18 -5 17 -35 39 -34 39 -35 13 -35 -25 0 -26 -1 -15 -32 6 -18 19 -42 29 -54 20 -21 25 -44 10 -44 -4 0 -11 -21 -15 -47 -5 -37 -2 -51 12 -67 11 -12 22 -30 27 -41 5 -13 9 -15 12 -7 3 6 9 12 14 12 14 0 11 -33 -7 -58 -9 -13 -13 -29 -10 -37 3 -8 1 -17 -5 -21 -16 -10 7 -30 62 -53 27 -12 59 -19 69 -16 15 5 21 0 26 -19 15 -63 -27 -136 -79 -136 -15 0 -18 -4 -12 -22 3 -13 7 -29 7 -35 1 -7 11 -13 22 -14 30 0 109 -34 114 -48 5 -15 -33 -14 -66 3 -35 18 -62 1 -62 -38 0 -29 3 -31 32 -15 13 7 23 8 30 1 7 -7 3 -14 -11 -21 -22 -12 -27 -56 -12 -96 7 -17 9 -16 15 10 l8 30 10 -25 c16 -43 -22 -150 -54 -150 -4 0 -8 20 -8 44 0 25 -4 48 -10 51 -6 3 -7 -1 -4 -10 6 -15 1 -16 -42 -9 -27 3 -60 11 -74 17 -25 10 -25 10 10 19 19 5 40 14 45 20 7 8 6 9 -2 4 -8 -4 -18 6 -27 29 -10 24 -21 35 -35 35 -24 0 -27 -10 -9 -28 21 -21 -20 -14 -50 8 -24 18 -32 19 -62 9 -32 -12 -32 -13 -11 -21 12 -4 19 -12 16 -18 -3 -5 -1 -10 4 -10 6 0 11 12 11 26 0 22 2 25 15 14 15 -12 22 -85 7 -76 -4 2 -16 -2 -27 -10 -10 -8 -13 -14 -6 -14 7 0 10 -4 6 -10 -3 -5 -12 -7 -20 -4 -18 7 -65 -39 -65 -65 0 -19 2 -19 44 5 24 14 50 31 57 40 15 19 29 2 29 -37 0 -36 61 -65 100 -49 23 10 36 7 89 -20 70 -36 94 -69 68 -94 -9 -9 -23 -13 -31 -10 -10 4 -18 -1 -22 -11 -9 -23 31 -54 69 -55 17 0 27 -5 27 -15 0 -8 -4 -15 -10 -15 -5 0 -10 -6 -10 -14 0 -14 57 -28 74 -19 4 3 5 18 2 34 -7 35 11 39 20 4 3 -14 12 -25 19 -25 8 0 26 -11 42 -24 15 -13 37 -25 48 -27 19 -4 44 -63 32 -75 -5 -5 -47 5 -151 37 -46 14 -61 12 -46 -6 10 -12 10 -15 -2 -15 -8 0 -20 6 -28 12 -12 11 -12 10 0 -5 15 -21 86 -57 110 -57 12 0 17 -9 17 -30 0 -16 -2 -30 -3 -30 -1 0 -13 4 -27 9 -13 5 -30 5 -37 1 -11 -7 -8 -11 13 -19 16 -6 34 -11 42 -11 8 0 17 -5 20 -10 4 -6 -7 -10 -24 -10 -30 0 -43 -21 -22 -34 4 -3 11 -18 14 -34 3 -15 20 -45 37 -67 l32 -40 -3 55 c-4 54 -4 55 25 58 25 3 28 1 18 -11 -10 -11 -8 -19 8 -40 24 -30 25 -37 5 -37 -29 0 -14 -19 40 -50 30 -17 53 -36 49 -41 -3 -6 -20 -1 -38 11 -35 21 -76 27 -76 10 0 -5 9 -10 20 -10 22 0 27 -16 8 -23 -10 -3 -10 -8 1 -21 11 -12 23 -16 43 -12 15 3 28 1 28 -3 0 -5 3 -17 7 -27 5 -14 2 -16 -19 -11 -15 4 -34 10 -45 14 -16 6 -16 5 -5 -10 8 -9 35 -24 60 -33 26 -10 51 -21 57 -26 18 -16 -33 -8 -76 12 -24 11 -55 20 -69 20 l-24 0 23 -16 c13 -9 31 -18 40 -18 9 -1 43 -15 76 -31 48 -23 56 -29 38 -32 -13 -3 -23 -8 -23 -12 0 -9 43 -51 53 -51 3 0 7 19 9 42 2 24 9 43 17 46 8 3 11 0 7 -6 -3 -6 4 -18 16 -27 18 -12 20 -17 10 -24 -8 -4 -13 -14 -12 -22 5 -31 -1 -39 -30 -39 -16 0 -30 -4 -30 -8 0 -20 43 -45 78 -47 34 -1 41 -6 75 -59 41 -61 43 -84 4 -48 -35 33 -45 26 -11 -7 22 -22 35 -28 55 -24 19 4 28 0 33 -14 12 -33 34 -66 52 -76 18 -10 16 -5 -16 43 -19 29 -32 70 -21 70 4 0 40 -11 79 -24 40 -14 72 -20 72 -15 0 14 -65 40 -118 48 -39 5 -42 8 -30 24 13 17 17 17 78 -11 71 -32 145 -103 127 -121 -7 -7 -3 -17 15 -31 15 -11 29 -35 32 -55 5 -23 13 -35 24 -36 9 0 53 -1 97 -2 125 -4 175 -47 54 -47 -43 0 -67 -5 -87 -19 -40 -29 -72 -36 -72 -17 0 21 -19 20 -27 -1 -5 -12 6 -27 35 -53 23 -19 42 -39 42 -42 0 -4 -17 -8 -37 -10 l-38 -3 40 -21 c22 -12 58 -27 80 -32 36 -10 38 -10 21 3 -11 8 -26 15 -33 15 -10 0 -11 5 -4 17 5 10 5 26 0 41 -13 35 -3 44 45 37 39 -6 47 -4 80 25 20 18 36 38 36 45 0 19 68 -3 81 -26 12 -24 -6 -70 -31 -76 -11 -3 -20 -10 -21 -17 0 -6 -1 -24 -2 -41 -1 -16 -6 -30 -12 -30 -5 0 -9 4 -7 11 1 6 -7 19 -18 29 -17 16 -20 16 -20 2 0 -9 -10 -23 -21 -31 -21 -14 -20 -15 20 -35 48 -25 151 -51 204 -51 46 0 48 16 8 79 -16 25 -34 70 -40 100 -6 30 -16 60 -22 67 -16 20 -4 31 43 38 24 4 54 14 68 23 14 9 41 19 60 23 26 4 39 13 49 34 13 27 16 28 65 23 l51 -5 -58 18 c-131 41 -240 53 -408 46 -174 -8 -179 -7 -237 50 -19 19 -49 39 -67 45 -29 11 -33 17 -33 46 0 20 -8 44 -20 56 -10 12 -22 40 -25 61 -9 58 -37 81 -95 80 -26 0 -57 -4 -69 -8 -26 -9 -59 21 -101 94 -22 36 -26 55 -24 105 2 42 -3 69 -15 90 -12 21 -17 58 -19 125 -1 52 -6 108 -10 124 -6 23 -3 32 17 46 l23 18 -51 49 c-29 26 -53 57 -54 68 -5 61 3 105 25 138 20 29 22 38 11 47 -21 18 -27 71 -10 97 14 20 14 26 1 51 -8 16 -32 44 -54 64 -36 32 -38 36 -20 47 24 15 23 24 -12 73 -16 22 -30 45 -30 49 0 5 14 15 30 24 69 36 17 115 -90 135 -98 19 -104 50 -10 50 79 0 90 6 90 45 0 36 -15 45 -83 45 -21 0 -46 4 -56 10 -23 12 -45 64 -39 88 3 11 -3 30 -13 43 -10 13 -19 32 -19 41 0 9 -16 29 -35 44 -35 27 -45 49 -23 56 23 8 -2 54 -47 86 -36 25 -52 47 -80 108 -19 42 -35 80 -35 85 0 5 14 16 31 24 l30 16 -34 38 c-27 30 -35 49 -41 95 -7 64 -16 84 -57 136 -36 45 -43 77 -29 130 10 38 9 46 -9 71 -23 31 -27 49 -11 49 23 0 4 73 -24 93 -8 5 -6 11 5 20 9 6 15 17 13 22 -1 6 -5 44 -7 85 l-5 75 40 37 41 37 -53 88 c-29 48 -61 98 -71 111 -10 13 -21 44 -24 70 -4 26 -17 72 -30 102 -45 104 -45 183 0 200 15 6 25 17 25 30 0 11 11 29 24 41 21 18 23 25 15 61 -13 56 -35 106 -64 144 -30 39 -30 40 -5 47 17 4 18 11 13 73 -7 84 10 154 38 161 23 6 23 5 -1 53 -13 26 -21 64 -23 108 -3 75 -10 92 -37 92 -33 0 -53 30 -47 71 4 32 1 41 -19 54 -13 8 -27 28 -31 42 -3 15 -26 57 -51 92 -36 53 -41 66 -28 71 13 4 11 10 -13 33 -35 33 -81 121 -81 156 0 13 7 32 14 40 10 11 16 46 18 109 2 75 6 92 18 90 22 -4 40 10 40 30 0 10 -16 56 -36 102 -60 141 -61 146 -35 174 19 21 22 32 19 102 -2 72 0 83 25 120 37 55 64 128 77 210 14 86 24 104 58 104 32 0 72 25 72 45 0 8 -18 34 -39 59 -50 57 -56 77 -37 115 21 40 21 42 -19 131 -38 84 -47 156 -20 166 12 5 11 11 -7 36 -12 17 -21 43 -21 58 0 53 80 124 176 156 33 11 52 24 62 45 22 42 41 233 26 266 -11 24 -14 25 -79 18 -81 -8 -92 0 -117 89 -10 32 -35 97 -56 144 -22 46 -42 102 -45 124 -7 38 -14 50 -82 140 -25 32 -32 50 -28 70 4 22 1 30 -22 40 -21 10 -28 23 -33 53 -3 22 -9 47 -13 56 -5 12 0 18 18 23 31 8 32 18 5 55 -20 27 -20 30 -5 59 23 45 20 58 -23 92 -21 17 -50 52 -64 78 -34 62 -77 179 -77 207 0 13 -11 30 -25 39 -14 9 -25 22 -25 29 0 7 -13 28 -28 46 -25 30 -29 32 -41 17z M3620 3649 c0 -7 -11 -9 -30 -5 -29 5 -30 5 -30 -35 0 -22 6 -52 14 -67 14 -27 43 -152 48 -207 3 -32 25 -47 87 -60 l34 -7 -7 35 c-5 24 -3 37 6 40 9 3 4 14 -16 36 -26 27 -27 31 -10 31 16 1 15 4 -10 24 -37 31 -46 90 -16 106 19 10 18 12 -17 65 -36 53 -53 67 -53 44z M3999 2976 c13 -15 12 -18 -7 -23 -28 -7 -28 -16 3 -49 24 -26 26 -26 50 -10 27 18 31 31 14 41 -6 5 -4 11 7 19 20 15 12 22 -41 32 -37 7 -39 6 -26 -10z M3777 2943 c-22 -21 17 -39 44 -20 10 8 16 17 12 20 -8 9 -48 9 -56 0z M3890 2940 c0 -5 5 -10 11 -10 5 0 7 5 4 10 -3 6 -8 10 -11 10 -2 0 -4 -4 -4 -10z"/>
<path id="su-pa" title="Paraguay" d="M5425 9493 c-16 -2 -88 -19 -160 -38 -71 -18 -155 -36 -185 -40 -74 -9 -95 -24 -110 -82 -7 -26 -22 -66 -34 -88 -16 -33 -21 -68 -27 -195 -4 -85 -15 -191 -24 -234 l-17 -79 50 -46 c27 -25 59 -62 70 -81 26 -44 97 -112 182 -175 36 -27 79 -61 95 -76 29 -27 123 -63 233 -89 33 -7 76 -29 113 -57 94 -69 183 -121 230 -133 23 -6 52 -18 63 -25 12 -8 47 -23 79 -35 31 -12 73 -37 93 -55 31 -29 35 -39 31 -67 -10 -69 -37 -142 -60 -167 -20 -21 -26 -40 -29 -98 -4 -58 -10 -78 -31 -102 -25 -30 -44 -87 -33 -98 3 -4 37 -5 75 -4 48 2 97 -5 164 -24 80 -22 99 -24 122 -13 21 9 31 9 46 -1 11 -6 29 -9 40 -6 11 4 30 0 43 -8 20 -14 23 -13 34 4 7 10 23 26 37 35 22 14 27 14 56 0 39 -19 56 -9 65 40 7 36 36 64 66 64 10 0 22 10 27 23 5 12 25 39 45 60 41 43 40 33 21 157 -19 120 -19 191 -1 277 8 37 14 104 14 148 -1 121 -35 148 -129 105 -97 -44 -143 -10 -164 120 -4 25 -18 63 -30 85 -12 22 -33 72 -46 110 -27 81 -35 95 -59 95 -9 0 -43 13 -74 29 l-57 28 -15 -30 c-16 -29 -16 -29 -77 -23 -71 8 -162 30 -219 53 l-40 16 6 46 c3 25 8 91 10 146 4 80 2 103 -10 117 -9 9 -17 22 -18 30 -1 7 -12 29 -24 48 -12 19 -29 68 -38 108 -20 90 -43 119 -131 164 -101 53 -190 73 -268 61z M3828 2863 c7 -3 16 -2 19 1 4 3 -2 6 -13 5 -11 0 -14 -3 -6 -6z M3871 2839 c-30 -12 -18 -26 26 -31 38 -4 46 9 18 27 -14 9 -27 10 -44 4z M3895 2780 c3 -5 14 -10 23 -10 15 0 15 2 2 10 -20 13 -33 13 -25 0z M3850 2708 c0 -7 4 -19 9 -26 7 -11 10 -10 15 3 3 9 4 21 0 26 -8 13 -24 11 -24 -3z M3990 2711 c0 -5 6 -14 14 -20 12 -10 13 -8 9 8 -5 21 -23 30 -23 12z M3935 2690 c3 -5 11 -10 16 -10 6 0 7 5 4 10 -3 6 -11 10 -16 10 -6 0 -7 -4 -4 -10z M3736 2402 c-7 -12 22 -38 31 -28 4 3 0 14 -9 22 -9 10 -18 12 -22 6z M4045 2179 c-9 -14 -6 -15 35 -23 l35 -7 -25 20 c-29 24 -36 25 -45 10z M4006 2107 c3 -10 9 -15 12 -12 3 3 0 11 -7 18 -10 9 -11 8 -5 -6z M4133 2113 c9 -2 25 -2 35 0 9 3 1 5 -18 5 -19 0 -27 -2 -17 -5z M4305 2080 c3 -5 12 -10 20 -10 8 0 17 5 20 10 4 6 -5 10 -20 10 -15 0 -24 -4 -20 -10z M3938 2030 c9 -16 22 -30 29 -30 7 0 24 -17 38 -37 14 -21 25 -31 25 -22 0 26 -49 84 -92 109 -16 10 -16 9 0 -20z M3990 2041 c0 -5 12 -19 27 -31 20 -16 28 -18 35 -8 5 8 0 19 -13 31 -23 18 -49 23 -49 8z M4080 2013 c0 -6 7 -16 15 -23 8 -7 12 -17 9 -22 -4 -6 -10 -6 -17 1 -15 15 -27 14 -27 -3 0 -19 7 -23 54 -31 l39 -8 -19 32 c-22 37 -54 69 -54 54z M3941 1961 c-11 -7 -9 -10 8 -16 25 -8 36 -2 26 14 -8 13 -15 14 -34 2z M4119 1908 c-8 -15 -4 -48 5 -48 10 0 23 -29 54 -120 4 -12 1 -11 -15 3 -16 14 -22 15 -30 5 -23 -29 3 -84 51 -110 18 -10 18 -9 2 13 -21 30 -20 49 4 78 17 19 23 21 35 11 12 -10 13 -16 3 -27 -9 -11 -9 -16 3 -24 12 -8 12 -10 0 -18 -12 -8 -10 -12 12 -22 15 -7 27 -16 27 -21 0 -4 8 -8 18 -8 15 -1 15 -2 -2 -15 -11 -9 -14 -15 -7 -15 7 0 19 6 27 14 12 13 12 17 -2 30 -8 9 -13 20 -9 26 3 6 -1 7 -9 4 -9 -3 -16 -4 -16 -1 0 2 -4 28 -10 56 -9 50 -45 113 -94 166 -20 21 -42 32 -47 23z M3990 1859 c0 -5 9 -9 20 -9 11 0 20 2 20 4 0 2 -9 6 -20 9 -11 3 -20 1 -20 -4z M4026 1805 c-9 -26 -7 -32 5 -12 6 10 9 21 6 23 -2 3 -7 -2 -11 -11z M4106 1805 c25 -19 40 -19 24 0 -7 8 -20 15 -28 15 -13 0 -12 -3 4 -15z M4095 1660 c3 -5 8 -10 11 -10 2 0 4 5 4 10 0 6 -5 10 -11 10 -5 0 -7 -4 -4 -10z M4227 1540 c6 -23 -15 -27 -36 -7 -11 10 -13 9 -9 -2 6 -21 55 -33 62 -15 6 16 -3 44 -14 44 -5 0 -6 -9 -3 -20z M4401 1443 c16 -23 41 -43 50 -43 4 0 -5 14 -19 30 -28 32 -54 42 -31 13z M4344 1395 c26 -19 42 -19 26 0 -7 8 -20 15 -29 15 -13 -1 -13 -3 3 -15z M4421 1367 c7 -15 16 -27 21 -27 14 0 9 16 -13 36 -21 19 -21 19 -8 -9z M4378 1343 c6 -2 18 -2 25 0 6 3 1 5 -13 5 -14 0 -19 -2 -12 -5z M4425 1270 c-7 -12 2 -30 16 -30 12 0 12 27 0 35 -5 3 -12 1 -16 -5z M4360 1228 c0 -7 5 -20 10 -28 8 -12 10 -9 10 13 0 15 -4 27 -10 27 -5 0 -10 -6 -10 -12z M4812 1126 c25 -37 34 -40 23 -7 -3 12 -15 26 -26 32 -19 9 -18 8 3 -25z M4480 1101 c0 -6 5 -13 10 -16 6 -3 10 1 10 9 0 9 -4 16 -10 16 -5 0 -10 -4 -10 -9z M4690 1080 c8 -5 20 -10 25 -10 6 0 3 5 -5 10 -8 5 -19 10 -25 10 -5 0 -3 -5 5 -10z M4932 1060 c14 -22 12 -25 -24 -34 -22 -5 -28 -3 -28 9 0 13 -4 14 -21 4 -12 -6 -32 -9 -45 -6 l-23 4 24 -29 c14 -16 25 -38 25 -48 0 -10 5 -22 10 -25 6 -3 10 1 10 10 0 12 6 15 20 10 14 -4 20 -2 18 6 -4 17 31 24 45 10 8 -8 8 -14 -1 -23 -16 -16 -15 -45 1 -51 6 -3 3 -6 -8 -7 l-20 -1 20 -12 c11 -7 20 -19 20 -27 0 -8 10 -16 23 -18 24 -4 28 9 11 39 -8 17 -7 24 8 36 17 14 17 14 -4 10 -33 -7 -31 30 2 43 34 13 31 23 -5 18 -33 -5 -36 2 -18 32 10 16 9 23 -12 45 -28 30 -45 33 -28 5z M4680 1016 c0 -2 7 -6 15 -10 8 -3 15 -1 15 4 0 6 -7 10 -15 10 -8 0 -15 -2 -15 -4z M4770 963 c0 -5 5 -15 10 -23 8 -12 10 -11 10 8 0 12 -4 22 -10 22 -5 0 -10 -3 -10 -7z M5635 948 c-2 -7 -5 -24 -7 -38 -2 -19 -10 -26 -31 -28 -15 -2 -27 -9 -26 -15 3 -27 -2 -36 -26 -39 -24 -3 -24 -3 -8 -36 20 -41 49 -48 130 -32 69 13 108 9 117 -16 10 -26 -11 -50 -59 -68 -88 -34 -43 -87 111 -130 109 -30 184 -68 149 -75 -11 -2 -22 -7 -25 -11 -3 -4 -16 -11 -29 -15 -19 -6 -23 -4 -18 7 9 25 -8 39 -51 42 -37 3 -40 1 -31 -15 13 -26 8 -24 -36 11 -41 33 -60 38 -51 15 7 -18 -2 -18 -34 0 -14 8 -29 14 -35 14 -5 0 17 -14 50 -32 54 -28 57 -32 33 -35 -15 -2 -41 4 -58 13 -43 22 -49 12 -11 -16 25 -19 28 -25 18 -37 -10 -13 -8 -14 15 -9 14 4 34 10 44 14 12 4 15 3 10 -5 -5 -8 0 -12 13 -12 12 0 21 4 21 8 0 16 84 6 112 -12 14 -9 53 -20 85 -22 45 -4 54 -3 41 6 -26 16 -22 31 7 24 14 -3 25 -3 25 1 0 4 -46 97 -102 208 -56 111 -115 228 -131 261 l-28 58 -55 -7 c-46 -5 -58 -3 -80 14 -31 24 -43 26 -49 9z M4785 830 c11 -5 29 -8 40 -8 16 0 15 2 -5 8 -34 11 -60 11 -35 0z M4928 778 c6 -6 18 -8 28 -6 14 3 12 5 -9 10 -19 3 -25 2 -19 -4z M5180 758 c0 -7 4 -19 9 -26 6 -10 10 -10 20 2 7 8 10 20 6 26 -9 14 -35 13 -35 -2z M5044 721 c4 -5 0 -11 -6 -14 -7 -2 -1 -8 15 -12 15 -4 27 -12 27 -17 0 -10 -35 -7 -75 8 -14 5 -17 4 -10 -4 6 -5 19 -12 30 -14 11 -2 25 -14 31 -26 20 -40 29 -44 49 -22 18 20 49 25 79 14 12 -5 14 -10 6 -19 -16 -19 12 -38 32 -22 23 18 33 57 15 57 -8 0 -25 9 -39 19 -15 13 -33 18 -46 14 -13 -3 -22 -1 -22 6 0 6 -4 11 -10 11 -5 0 -10 -8 -10 -17 0 -13 -7 -9 -26 15 -22 28 -54 47 -40 23z M5563 666 c4 -9 10 -23 13 -31 4 -10 0 -15 -12 -15 -15 0 -13 -5 11 -30 16 -16 33 -30 39 -30 6 0 5 5 -2 12 -17 17 -15 41 3 34 10 -4 8 6 -8 31 -24 38 -56 59 -44 29z M5311 601 c-11 -7 -6 -13 18 -25 20 -11 31 -13 31 -5 0 6 7 9 15 5 15 -5 22 9 8 17 -20 11 -60 15 -72 8z M5420 581 c0 -18 26 -31 38 -19 9 9 12 9 12 0 0 -7 5 -12 10 -12 6 0 5 8 -2 20 -13 20 -58 28 -58 11z M5520 546 c0 -9 5 -16 10 -16 6 0 10 4 10 9 0 6 -4 13 -10 16 -5 3 -10 -1 -10 -9z M5600 490 c-6 -11 -21 -20 -32 -20 -22 0 -22 -1 -4 -17 14 -14 19 -15 23 -5 4 10 11 8 27 -7 15 -14 29 -18 46 -14 l24 6 -22 8 c-14 5 -25 20 -28 39 -7 35 -19 38 -34 10z M5476 465 c-4 -11 2 -15 24 -15 20 0 30 5 30 15 0 9 -9 15 -24 15 -13 0 -26 -7 -30 -15z M5427 449 c7 -7 15 -10 18 -7 3 3 -2 9 -12 12 -14 6 -15 5 -6 -5z M5885 360 c-15 -7 -9 -9 25 -9 33 -1 41 2 30 9 -18 12 -28 12 -55 0z M6090 350 c-20 -6 -15 -8 25 -9 36 0 46 2 35 9 -17 11 -25 11 -60 0z M6210 354 c2 -41 102 -81 135 -54 13 11 20 9 40 -10 25 -24 45 -20 45 9 0 27 -66 53 -147 59 -40 2 -73 1 -73 -4z M5693 343 c9 -2 23 -2 30 0 6 3 -1 5 -18 5 -16 0 -22 -2 -12 -5z M5740 336 c0 -2 9 -6 20 -9 11 -3 18 -1 14 4 -5 9 -34 13 -34 5z M5960 325 c0 -12 -4 -13 -19 -4 -10 7 -27 9 -37 5 -16 -6 -16 -9 -4 -16 8 -6 28 -10 43 -10 16 0 26 -4 22 -9 -6 -12 33 -41 55 -41 11 0 10 5 -6 18 -12 9 -24 25 -27 35 -5 13 -1 17 17 17 32 0 119 -38 129 -56 4 -8 20 -14 35 -13 l27 1 -28 10 c-18 6 -26 15 -23 24 4 10 -2 14 -19 14 -28 0 -75 20 -75 32 0 4 -20 8 -45 8 -33 0 -45 -4 -45 -15z M6168 283 c6 -2 18 -2 25 0 6 3 1 5 -13 5 -14 0 -19 -2 -12 -5z M6208 243 c6 -2 18 -2 25 0 6 3 1 5 -13 5 -14 0 -19 -2 -12 -5z"/>
<path id="su-ar" title="Argentina" d="M4030 8817 c0 -24 -23 -50 -72 -80 -27 -17 -108 -127 -108 -146 0 -6 4 -11 9 -11 5 0 15 -16 21 -34 13 -41 -2 -207 -24 -259 -16 -40 -27 -48 -100 -77 -64 -25 -146 -95 -146 -124 0 -9 11 -34 25 -54 28 -42 32 -62 10 -62 -30 0 -22 -55 23 -158 35 -81 35 -83 19 -118 -9 -19 -17 -38 -17 -43 0 -4 20 -34 45 -65 25 -32 45 -64 45 -70 0 -20 -46 -57 -74 -60 -15 -1 -31 -7 -35 -12 -5 -5 -16 -47 -25 -94 -11 -60 -28 -110 -60 -172 -44 -84 -45 -89 -39 -155 5 -61 3 -70 -16 -87 -27 -24 -27 -46 2 -104 49 -99 71 -171 59 -197 -7 -14 -18 -25 -26 -25 -16 0 -26 -43 -26 -115 0 -35 -5 -57 -15 -65 -33 -28 -6 -118 56 -182 19 -21 28 -40 27 -58 -1 -16 9 -41 29 -66 17 -21 34 -50 38 -64 4 -14 18 -36 30 -50 16 -16 25 -40 27 -69 3 -40 6 -44 38 -55 l35 -11 6 -80 c3 -44 13 -94 22 -112 23 -43 21 -68 -5 -85 -21 -14 -23 -25 -26 -114 -2 -55 -8 -104 -14 -111 -6 -8 -1 -24 16 -50 54 -82 73 -183 37 -202 -10 -6 -21 -23 -24 -38 -3 -16 -15 -32 -29 -38 -36 -16 -36 -77 1 -170 17 -42 31 -89 31 -103 0 -31 24 -77 106 -202 54 -82 53 -96 -3 -131 l-36 -22 7 -81 c4 -44 12 -86 18 -93 8 -10 6 -13 -7 -13 -9 0 -14 -5 -11 -12 22 -55 29 -91 19 -106 -7 -13 -5 -23 8 -42 16 -22 17 -31 7 -73 -10 -43 -9 -52 10 -90 12 -23 31 -53 42 -67 12 -14 25 -53 31 -89 8 -50 18 -73 47 -109 34 -42 36 -46 19 -56 -51 -31 -51 -27 -13 -106 27 -57 47 -83 81 -108 47 -34 65 -73 46 -96 -10 -11 -5 -20 24 -41 20 -16 35 -36 35 -48 0 -11 8 -29 17 -39 10 -11 16 -32 15 -50 -4 -54 18 -74 88 -81 72 -6 90 -18 90 -62 0 -42 -17 -55 -82 -65 -29 -4 -43 -8 -30 -9 39 -2 120 -42 137 -67 8 -13 15 -34 15 -47 0 -25 -28 -57 -48 -57 -19 0 -14 -13 18 -50 30 -36 39 -74 19 -86 -7 -4 -2 -16 14 -33 54 -59 75 -119 46 -137 -15 -9 -3 -60 21 -92 21 -26 21 -26 1 -34 -29 -10 -43 -44 -45 -105 -1 -52 0 -54 47 -94 51 -44 58 -66 27 -94 -18 -16 -18 -20 -5 -45 11 -21 13 -48 8 -107 -5 -65 -2 -85 12 -113 13 -24 18 -53 17 -92 -3 -63 15 -107 65 -167 27 -31 32 -33 59 -24 17 6 50 7 76 3 55 -8 87 -39 88 -86 0 -18 10 -43 25 -60 14 -16 25 -41 25 -56 0 -21 8 -32 31 -44 17 -8 50 -33 73 -54 l42 -39 195 2 c206 2 265 -6 433 -57 42 -13 76 -21 76 -17 0 4 -37 37 -82 72 -77 59 -87 64 -137 66 -30 1 -61 5 -68 8 -27 10 -1 25 43 25 54 0 56 12 11 72 -20 26 -42 44 -57 46 -24 3 -25 5 -25 84 l0 80 39 34 c22 19 37 35 35 37 -18 13 -65 27 -90 27 -18 0 -28 4 -24 10 3 6 17 10 31 10 30 0 30 7 2 37 -19 20 -20 23 -4 23 10 0 37 -20 62 -45 44 -45 69 -54 105 -35 38 21 18 160 -24 160 -16 0 -18 3 -9 12 7 7 12 27 12 46 0 47 52 122 155 221 71 68 84 85 74 97 -9 11 -24 13 -56 8 -29 -4 -43 -3 -43 5 0 6 11 11 24 11 36 0 56 26 56 72 0 32 -7 47 -34 74 -32 32 -38 34 -105 34 -86 0 -112 10 -216 84 -167 120 -187 158 -149 287 20 68 48 107 82 116 15 3 34 16 43 27 14 17 31 21 93 24 42 2 76 7 76 12 0 4 -9 15 -20 25 -26 23 -22 57 8 70 23 10 32 58 12 70 -5 3 -10 20 -10 36 0 16 -12 48 -27 70 l-26 40 16 53 c18 57 45 88 92 106 23 9 26 13 15 20 -8 6 -23 10 -33 10 -28 0 -75 28 -88 52 -10 19 -8 25 21 51 18 16 29 32 24 36 -5 3 -9 13 -9 21 0 8 -21 22 -50 33 -68 25 -83 43 -101 117 -9 39 -28 81 -50 111 -48 66 -54 110 -21 143 30 30 40 32 61 10 9 -8 65 -33 126 -55 119 -42 177 -48 270 -28 52 11 120 59 120 83 0 7 -17 32 -37 56 -36 42 -38 47 -38 117 0 54 3 72 13 68 21 -8 15 62 -8 85 -11 11 -20 24 -20 28 0 5 -11 19 -25 32 -14 13 -25 35 -25 48 0 14 -7 34 -17 44 -25 28 -7 34 45 14 124 -48 258 -43 551 24 174 39 273 77 338 126 27 20 33 32 33 62 0 26 19 74 61 157 66 130 68 146 33 235 -14 35 -19 39 -44 33 -39 -7 -90 25 -119 77 -21 37 -23 50 -17 110 7 66 6 69 -24 104 -21 23 -71 55 -145 91 -92 45 -122 65 -160 108 -33 38 -41 53 -30 55 23 5 18 36 -15 102 -30 60 -35 93 -23 163 4 27 13 42 28 49 l23 10 -25 54 c-16 35 -24 68 -21 92 1 20 -3 59 -11 86 -11 38 -12 55 -2 81 7 20 8 42 3 56 -5 13 -5 67 -1 119 5 75 4 101 -8 124 -14 26 -13 31 6 57 12 15 21 39 21 51 0 14 9 27 22 33 13 6 27 25 32 44 6 22 21 41 42 53 24 14 46 47 93 142 62 125 129 215 159 217 11 0 12 2 5 6 -7 2 -13 8 -13 13 0 15 106 117 129 125 11 3 28 20 36 36 10 19 39 42 83 65 37 19 84 45 105 57 l39 22 -5 110 c-5 122 -38 235 -78 268 -27 21 -78 23 -86 1 -4 -11 -13 -14 -30 -10 -26 7 -26 7 -2 -132 10 -64 1 -92 -46 -136 -19 -19 -35 -40 -35 -48 0 -9 -17 -20 -40 -27 -33 -10 -40 -17 -46 -45 -5 -29 -36 -76 -49 -76 -2 0 -21 8 -41 17 -36 18 -36 18 -59 -9 -13 -15 -25 -32 -27 -40 -4 -10 -10 -9 -31 5 -17 11 -36 15 -55 11 -17 -3 -32 -1 -36 5 -4 6 -24 8 -50 5 -29 -4 -67 1 -122 16 -51 15 -108 23 -163 24 -58 1 -86 5 -88 13 -7 20 17 86 40 111 16 17 22 41 26 103 5 67 10 83 28 97 22 17 63 126 63 168 0 31 -48 71 -119 99 -35 13 -68 28 -75 33 -6 5 -29 15 -51 22 -55 17 -136 63 -224 126 -40 30 -92 59 -115 64 -141 36 -233 71 -261 101 -17 17 -52 47 -80 67 -100 72 -155 124 -190 180 -19 32 -62 79 -95 106 -33 26 -65 57 -71 67 -8 17 -21 19 -107 18 -140 -1 -143 -3 -169 -79 -12 -36 -22 -82 -23 -102 0 -20 -4 -39 -8 -42 -5 -3 -26 26 -48 65 -21 39 -48 81 -60 94 -29 32 -86 46 -155 38 -74 -7 -98 -1 -149 42 -49 41 -60 43 -60 12z M5706 3578 c-18 -10 -18 -11 5 -28 20 -15 21 -20 10 -34 -7 -9 -25 -16 -40 -16 l-26 -1 26 -14 c14 -8 32 -28 39 -44 14 -36 26 -41 71 -32 21 4 35 14 37 25 5 26 -37 125 -62 141 -24 18 -35 18 -60 3z M7632 1245 c-10 -19 -4 -62 9 -71 5 -3 9 -14 9 -25 0 -16 -3 -17 -19 -7 -28 17 -61 -14 -61 -57 0 -40 25 -66 33 -35 4 18 9 19 34 10 26 -9 27 -9 9 5 -11 8 -27 15 -35 16 -10 0 -7 4 7 9 13 6 32 6 48 0 49 -19 64 -2 17 19 -37 17 -17 34 27 21 40 -11 80 -3 80 16 0 9 11 14 33 14 24 0 28 3 17 10 -8 5 -29 10 -45 10 -35 0 -75 24 -75 45 0 17 -6 21 -47 29 -24 6 -34 3 -41 -9z M7531 1228 c-1 -15 -5 -16 -27 -8 -33 13 -84 13 -84 0 0 -5 -17 -10 -37 -11 l-38 -1 38 -16 c22 -8 36 -20 33 -27 -2 -7 1 -18 7 -24 8 -8 7 -11 -5 -11 -9 0 -23 -11 -32 -25 -9 -14 -23 -25 -31 -25 -20 0 -19 -16 1 -24 22 -8 54 11 54 33 0 14 5 18 20 14 11 -3 27 1 36 8 30 25 75 100 71 117 -4 16 -5 16 -6 0z M7765 1220 c3 -5 12 -10 20 -10 8 0 17 5 20 10 4 6 -5 10 -20 10 -15 0 -24 -4 -20 -10z M5860 883 c0 -4 10 -23 21 -42 19 -31 22 -33 31 -17 7 12 6 22 -3 32 -16 19 -49 37 -49 27z M6012 588 c85 -168 95 -183 118 -180 13 1 38 -2 55 -8 35 -13 264 -34 345 -32 30 1 92 4 138 8 78 5 83 7 80 27 -3 20 -9 22 -78 23 -65 1 -90 7 -195 49 -141 56 -228 98 -270 130 -16 12 -53 34 -81 48 -29 14 -69 44 -90 66 -27 26 -51 41 -77 46 l-38 6 93 -183z"/>
<path id="su-ur" title="Uruguay" d="M6412 6664 c-19 -22 -28 -26 -60 -21 -34 5 -39 3 -59 -29 -21 -32 -22 -38 -9 -62 11 -21 12 -49 7 -122 -4 -52 -4 -106 1 -119 5 -15 4 -36 -4 -57 -10 -28 -10 -41 1 -67 8 -17 15 -52 15 -77 1 -27 13 -66 29 -97 33 -64 34 -78 3 -98 -32 -21 -37 -46 -25 -114 14 -72 30 -96 109 -163 65 -55 67 -56 140 -60 63 -3 83 -9 124 -36 27 -17 68 -34 92 -38 25 -3 55 -15 68 -25 30 -23 39 -23 94 -2 42 16 49 16 129 -1 78 -16 87 -16 134 -1 27 9 55 26 62 36 6 10 19 19 29 19 21 0 59 49 92 120 32 69 32 80 0 147 -31 63 -30 123 5 171 29 42 27 56 -18 85 -21 14 -61 51 -87 83 -33 38 -66 64 -102 80 -29 13 -71 41 -95 63 -23 21 -61 48 -84 60 -23 11 -44 25 -48 31 -3 5 -17 10 -31 10 -17 0 -44 18 -79 51 l-54 50 -20 -20 c-31 -31 -69 -28 -77 7 -11 54 -24 71 -81 113 -32 23 -75 57 -96 76 -45 40 -74 42 -105 7z"/>
</g>

</svg>
